{
    "asset" : {
        "generator" : "Khronos glTF Blender I/O v3.3.32",
        "version" : "2.0"
    },
    "scene" : 0,
    "scenes" : [
        {
            "name" : "Scene",
            "nodes" : [
                0,
                1,
                2
            ]
        }
    ],
    "nodes" : [
        {
            "mesh" : 0,
            "name" : "Cylinder.006",
            "rotation" : [
                0,
                0,
                -0.7071066498756409,
                0.70710688829422
            ],
            "scale" : [
                3.341569185256958,
                0.2378608137369156,
                3.341569423675537
            ],
            "translation" : [
                0,
                27.697277069091797,
                0
            ]
        },
        {
            "mesh" : 1,
            "name" : "Cylinder.025",
            "rotation" : [
                0.48430395126342773,
                0.48430395126342773,
                -0.515218198299408,
                0.5152181386947632
            ],
            "scale" : [
                3.341569662094116,
                0.23786085844039917,
                3.341569662094116
            ],
            "translation" : [
                -0.044715799391269684,
                27.669389724731445,
                0.009936111979186535
            ]
        },
        {
            "mesh" : 2,
            "name" : "Cylinder.002",
            "rotation" : [
                0,
                0,
                -0.7071066498756409,
                0.70710688829422
            ],
            "scale" : [
                3.341569185256958,
                0.2378608137369156,
                3.341569423675537
            ],
            "translation" : [
                0,
                27.697277069091797,
                0
            ]
        }
    ],
    "materials" : [
        {
            "doubleSided" : true,
            "name" : "Material.002",
            "pbrMetallicRoughness" : {
                "baseColorFactor" : [
                    0.8000000715255737,
                    0.09962817281484604,
                    0,
                    1
                ],
                "metallicFactor" : 0,
                "roughnessFactor" : 0.5
            }
        },
        {
            "doubleSided" : true,
            "name" : "Material.004",
            "pbrMetallicRoughness" : {
                "baseColorTexture" : {
                    "index" : 0
                },
                "metallicFactor" : 0,
                "roughnessFactor" : 0.5
            }
        },
        {
            "doubleSided" : true,
            "name" : "Material.006",
            "pbrMetallicRoughness" : {
                "baseColorFactor" : [
                    0.4132731556892395,
                    0.8000000715255737,
                    0,
                    1
                ],
                "metallicFactor" : 0,
                "roughnessFactor" : 0.5
            }
        }
    ],
    "meshes" : [
        {
            "name" : "Cylinder.001",
            "primitives" : [
                {
                    "attributes" : {
                        "POSITION" : 0,
                        "NORMAL" : 1,
                        "TEXCOORD_0" : 2
                    },
                    "indices" : 3,
                    "material" : 0
                }
            ]
        },
        {
            "name" : "Cylinder.003",
            "primitives" : [
                {
                    "attributes" : {
                        "POSITION" : 4,
                        "NORMAL" : 5,
                        "TEXCOORD_0" : 6
                    },
                    "indices" : 7,
                    "material" : 1
                }
            ]
        },
        {
            "name" : "Cylinder.041",
            "primitives" : [
                {
                    "attributes" : {
                        "POSITION" : 8,
                        "NORMAL" : 9,
                        "TEXCOORD_0" : 10
                    },
                    "indices" : 11,
                    "material" : 2
                }
            ]
        }
    ],
    "textures" : [
        {
            "sampler" : 0,
            "source" : 0
        }
    ],
    "images" : [
        {
            "bufferView" : 8,
            "mimeType" : "image/jpeg",
            "name" : "boi"
        }
    ],
    "accessors" : [
        {
            "bufferView" : 0,
            "componentType" : 5126,
            "count" : 214,
            "max" : [
                1,
                1,
                1
            ],
            "min" : [
                -1,
                -1,
                -1
            ],
            "type" : "VEC3"
        },
        {
            "bufferView" : 1,
            "componentType" : 5126,
            "count" : 214,
            "type" : "VEC3"
        },
        {
            "bufferView" : 2,
            "componentType" : 5126,
            "count" : 214,
            "type" : "VEC2"
        },
        {
            "bufferView" : 3,
            "componentType" : 5123,
            "count" : 282,
            "type" : "SCALAR"
        },
        {
            "bufferView" : 4,
            "componentType" : 5126,
            "count" : 56,
            "max" : [
                0.9200201034545898,
                2.7158782482147217,
                0.9200201034545898
            ],
            "min" : [
                -0.9200201034545898,
                2.7158782482147217,
                -0.9200201034545898
            ],
            "type" : "VEC3"
        },
        {
            "bufferView" : 5,
            "componentType" : 5126,
            "count" : 56,
            "type" : "VEC3"
        },
        {
            "bufferView" : 6,
            "componentType" : 5126,
            "count" : 56,
            "type" : "VEC2"
        },
        {
            "bufferView" : 7,
            "componentType" : 5123,
            "count" : 90,
            "type" : "SCALAR"
        },
        {
            "bufferView" : 9,
            "componentType" : 5126,
            "count" : 294,
            "max" : [
                1,
                2.7158782482147217,
                1
            ],
            "min" : [
                -1,
                1,
                -1
            ],
            "type" : "VEC3"
        },
        {
            "bufferView" : 10,
            "componentType" : 5126,
            "count" : 294,
            "type" : "VEC3"
        },
        {
            "bufferView" : 11,
            "componentType" : 5126,
            "count" : 294,
            "type" : "VEC2"
        },
        {
            "bufferView" : 12,
            "componentType" : 5123,
            "count" : 384,
            "type" : "SCALAR"
        }
    ],
    "bufferViews" : [
        {
            "buffer" : 0,
            "byteLength" : 2568,
            "byteOffset" : 0,
            "target" : 34962
        },
        {
            "buffer" : 0,
            "byteLength" : 2568,
            "byteOffset" : 2568,
            "target" : 34962
        },
        {
            "buffer" : 0,
            "byteLength" : 1712,
            "byteOffset" : 5136,
            "target" : 34962
        },
        {
            "buffer" : 0,
            "byteLength" : 564,
            "byteOffset" : 6848,
            "target" : 34963
        },
        {
            "buffer" : 0,
            "byteLength" : 672,
            "byteOffset" : 7412,
            "target" : 34962
        },
        {
            "buffer" : 0,
            "byteLength" : 672,
            "byteOffset" : 8084,
            "target" : 34962
        },
        {
            "buffer" : 0,
            "byteLength" : 448,
            "byteOffset" : 8756,
            "target" : 34962
        },
        {
            "buffer" : 0,
            "byteLength" : 180,
            "byteOffset" : 9204,
            "target" : 34963
        },
        {
            "buffer" : 0,
            "byteLength" : 14036,
            "byteOffset" : 9384
        },
        {
            "buffer" : 0,
            "byteLength" : 3528,
            "byteOffset" : 23420,
            "target" : 34962
        },
        {
            "buffer" : 0,
            "byteLength" : 3528,
            "byteOffset" : 26948,
            "target" : 34962
        },
        {
            "buffer" : 0,
            "byteLength" : 2352,
            "byteOffset" : 30476,
            "target" : 34962
        },
        {
            "buffer" : 0,
            "byteLength" : 768,
            "byteOffset" : 32828,
            "target" : 34963
        }
    ],
    "samplers" : [
        {
            "magFilter" : 9729,
            "minFilter" : 9987,
            "wrapS" : 33071,
            "wrapT" : 33071
        }
    ],
    "buffers" : [
        {
            "byteLength" : 33596,
            "uri" : "data:application/octet-stream;base64,"
        }
    ]
}
