{
    "asset" : {
        "generator" : "Khronos glTF Blender I/O v3.2.43",
        "version" : "2.0"
    },
    "scene" : 0,
    "scenes" : [
        {
            "name" : "Scene",
            "nodes" : [
                0
            ]
        }
    ],
    "nodes" : [
        {
            "mesh" : 0,
            "name" : "Plane.003",
            "rotation" : [
                0.5996137857437134,
                0.3747844099998474,
                0.3747844398021698,
                0.5996137261390686
            ],
            "scale" : [
                0.2104969322681427,
                0.4060792028903961,
                0.40607917308807373
            ],
            "translation" : [
                -1.2998111248016357,
                2.8905529975891113,
                0.024009285494685173
            ]
        }
    ],
    "materials" : [
        {
            "doubleSided" : true,
            "name" : "Material.014",
            "pbrMetallicRoughness" : {
                "baseColorFactor" : [
                    0.025350181385874748,
                    0.008416255936026573,
                    0,
                    1
                ],
                "metallicFactor" : 0,
                "roughnessFactor" : 0.5
            }
        },
        {
            "doubleSided" : true,
            "name" : "Material.001",
            "pbrMetallicRoughness" : {
                "baseColorFactor" : [
                    0.3793535530567169,
                    0.8000000715255737,
                    0,
                    1
                ],
                "metallicFactor" : 0,
                "roughnessFactor" : 0.5
            }
        },
        {
            "doubleSided" : true,
            "name" : "Material.002",
            "pbrMetallicRoughness" : {
                "baseColorFactor" : [
                    0.13917988538742065,
                    0.017949601635336876,
                    0.0010394827695563436,
                    1
                ],
                "metallicFactor" : 0,
                "roughnessFactor" : 0.5
            }
        }
    ],
    "meshes" : [
        {
            "name" : "Plane.003",
            "primitives" : [
                {
                    "attributes" : {
                        "POSITION" : 0,
                        "NORMAL" : 1,
                        "TEXCOORD_0" : 2
                    },
                    "indices" : 3,
                    "material" : 0
                },
                {
                    "attributes" : {
                        "POSITION" : 4,
                        "NORMAL" : 5,
                        "TEXCOORD_0" : 6
                    },
                    "indices" : 7,
                    "material" : 1
                },
                {
                    "attributes" : {
                        "POSITION" : 8,
                        "NORMAL" : 9,
                        "TEXCOORD_0" : 10
                    },
                    "indices" : 11,
                    "material" : 2
                }
            ]
        }
    ],
    "accessors" : [
        {
            "bufferView" : 0,
            "componentType" : 5126,
            "count" : 18,
            "max" : [
                2.0508761405944824,
                -0.023065246641635895,
                0.03537857532501221
            ],
            "min" : [
                0.20795172452926636,
                -0.10721839964389801,
                -1.8901029825210571
            ],
            "type" : "VEC3"
        },
        {
            "bufferView" : 1,
            "componentType" : 5126,
            "count" : 18,
            "type" : "VEC3"
        },
        {
            "bufferView" : 2,
            "componentType" : 5126,
            "count" : 18,
            "type" : "VEC2"
        },
        {
            "bufferView" : 3,
            "componentType" : 5123,
            "count" : 48,
            "type" : "SCALAR"
        },
        {
            "bufferView" : 4,
            "componentType" : 5126,
            "count" : 797,
            "max" : [
                1.5361535549163818,
                0.6975283026695251,
                0.6913105249404907
            ],
            "min" : [
                -1.8933261632919312,
                -0.6765287518501282,
                -0.6021043658256531
            ],
            "type" : "VEC3"
        },
        {
            "bufferView" : 5,
            "componentType" : 5126,
            "count" : 797,
            "type" : "VEC3"
        },
        {
            "bufferView" : 6,
            "componentType" : 5126,
            "count" : 797,
            "type" : "VEC2"
        },
        {
            "bufferView" : 7,
            "componentType" : 5123,
            "count" : 3780,
            "type" : "SCALAR"
        },
        {
            "bufferView" : 8,
            "componentType" : 5126,
            "count" : 115,
            "max" : [
                1.9239145517349243,
                -0.0009134411811828613,
                0.07598710060119629
            ],
            "min" : [
                1.5211111307144165,
                -0.11733049154281616,
                -0.03468739986419678
            ],
            "type" : "VEC3"
        },
        {
            "bufferView" : 9,
            "componentType" : 5126,
            "count" : 115,
            "type" : "VEC3"
        },
        {
            "bufferView" : 10,
            "componentType" : 5126,
            "count" : 115,
            "type" : "VEC2"
        },
        {
            "bufferView" : 11,
            "componentType" : 5123,
            "count" : 252,
            "type" : "SCALAR"
        }
    ],
    "bufferViews" : [
        {
            "buffer" : 0,
            "byteLength" : 216,
            "byteOffset" : 0
        },
        {
            "buffer" : 0,
            "byteLength" : 216,
            "byteOffset" : 216
        },
        {
            "buffer" : 0,
            "byteLength" : 144,
            "byteOffset" : 432
        },
        {
            "buffer" : 0,
            "byteLength" : 96,
            "byteOffset" : 576
        },
        {
            "buffer" : 0,
            "byteLength" : 9564,
            "byteOffset" : 672
        },
        {
            "buffer" : 0,
            "byteLength" : 9564,
            "byteOffset" : 10236
        },
        {
            "buffer" : 0,
            "byteLength" : 6376,
            "byteOffset" : 19800
        },
        {
            "buffer" : 0,
            "byteLength" : 7560,
            "byteOffset" : 26176
        },
        {
            "buffer" : 0,
            "byteLength" : 1380,
            "byteOffset" : 33736
        },
        {
            "buffer" : 0,
            "byteLength" : 1380,
            "byteOffset" : 35116
        },
        {
            "buffer" : 0,
            "byteLength" : 920,
            "byteOffset" : 36496
        },
        {
            "buffer" : 0,
            "byteLength" : 504,
            "byteOffset" : 37416
        }
    ],
    "buffers" : [
        {
            "byteLength" : 37920,
            "uri" : "data:application/octet-stream;base64,"
        }
    ]
}
